<?xml version="1.0" standalone="no" ?>
    <!DOCTYPE svg PUBLIC "-//W3C//DTD SVG 1.1//EN" 
        "http://www.w3.org/Graphics/SVG/1.1/DTD/svg11.dtd">
        <svg version="1.1" id="spokesAndCircles" xmlns="http://www.w3.org/2000/svg" xmlns:xlink="http://www.w3.org/1999/xlink"
        x="0" y="0"
        viewBox="0 0 6330.712080000001 3708.66342"
        width="53.6cm"
        height="31.4cm" 
        xml:space="preserve">
          <g>
          <path d="M 3235.615844948771 1627.358952969882 L 3402.93143334561 1851.0143161477129 L 3241.925903029442 2079.254204875335 L 2975.103424520509 1996.658850519668 L 2971.203594155669 1717.3722254874028 L 3235.615844948771 1627.358952969882 M 3160.8774790820494 1379.1557078773405 L 3615.891321771845 1703.23488548031 L 3448.2807181839626 2236.1247389773125 L 2889.67782560197 2241.3896030954425 L 2712.052855360175 1711.7536145695944 L 3160.8774790820494 1379.1557078773405 M 2941.779822631142 1177.5072655133486 L 3739.9654876118334 1432.5478360279674 L 3744.060426249773 2270.4793844653327 L 2948.4055725291746 2533.3089911308352 L 2452.568890978079 1857.815072862516 L 2941.779822631142 1177.5072655133486 M 2606.4599796647135 1085.641684211729 L 3723.715317304215 1085.2516885113434 L 4069.3371116431204 2147.7041424397817 L 3165.687790157787 2804.725866098674 L 2261.5800012301656 2148.335168738472 L 2606.459979664713 1085.641684211729 M 2207.1830929126895 1152.027346420842 L 3537.195457204173 726.0311013652398 L 4353.338385276443 1859.3079479156831 L 3527.730090211482 2985.7078028027586 L 2201.333174395215 2548.5843514954768 L 2207.1830929126895 1152.027346420842 M 1813.4340676390457 1401.9849457160137 L 3177.79651326888 428.7946711492476 L 4524.966647677257 1425.6481320523417 L 3993.2011337405643 3014.9277272601844 L 2317.3818376742547 3000.303073822212 L 1813.4340676390457 1401.9849457160144 M 3229.1501121443575 372.8882393721488 L 3229.9492302141225 354.3309 M 3289.338378680854 417.4252137825958 L 3294.7824215610426 354.3308999999998 M 3346.4236630654586 459.66610218413473 L 3360.0991954495044 354.3309 M 3400.836258917883 499.9293051061848 L 3426.150407936384 354.3309 M 3452.948068740887 538.4900159244957 L 3493.198118574628 354.3309 M 3503.0837519990087 575.5884700054628 L 3561.519887216212 354.3309000000002 M 3551.5296229227865 611.4365287349128 L 3631.413593296794 354.3309000000002 M 3598.540840908788 646.223000134233 L 3703.2029629934345 354.3309 M 3644.347297193044 680.1179947695765 L 3777.2440331763455 354.3309 M 3689.1585022860186 713.2765422634961 L 3853.9328414771917 354.3309 M 3733.1677073524183 745.8416409555784 L 3933.7147152295443 354.3309 M 3776.555441167664 777.9468751125572 L 4017.0956475344005 354.3309 M 3819.4926069715607 809.7187064794851 L 4104.656409611654 354.3309 M 3862.143256705644 841.2785271073806 L 4197.070274855621 354.3309 M 3904.6671411957236 872.7445463890479 L 4295.125551813942 354.3308999999998 M 3947.2221220933798 904.2335758018938 L 4399.754587094772 354.3308999999998 M 3989.966523694474 935.8627691620887 L 4512.071577650924 354.3309000000002 M 4033.0614994474727 967.7513737486039 L 4633.422540905975 354.3309 M 4076.673488769572 1000.0225482515161 L 4765.452319576059 354.3309 M 4120.976844772285 1032.8053071866532 L 4910.19586048835 354.3309000000002 M 4166.156723084226 1066.2366585120128 L 5070.204741232802 354.3309 M 4212.412336979073 1100.4640122957474 L 5248.725971311689 354.3309000000002 M 4259.960705814364 1135.6479544149593 L 5449.960182770331 354.3309 M 4309.041054390091 1171.9655019098273 L 5679.443677445399 354.3309 M 4359.9200632329275 1209.6139879895566 L 5944.629730288328 354.3309000000002 M 4412.898228374681 1248.8157680208851 L 6094.491480000001 432.6257174782282 M 4468.317670342396 1289.8239978767945 L 6094.491480000001 585.284711817189 M 4526.5718453159025 1332.9298198150882 L 6094.49148 732.3518232992456 M 4588.117770970551 1378.4714091261246 L 6094.491480000001 874.6460455367747 M 4598.921423067151 1442.521494934662 L 6094.491480000001 1012.8996345957348 M 4574.895687052328 1514.3268508809947 L 6094.491480000001 1147.7745835648666 M 4552.131986243081 1582.3603811859693 L 6094.49148 1279.8763626518921 M 4530.455236385866 1647.145357525369 L 6094.491480000001 1409.7655646792095 M 4509.714412514744 1709.1331459438873 L 6094.491480000001 1537.9679572171049 M 4489.777938783892 1768.7169851934063 L 6094.491480000001 1664.9833423483406 M 4470.5300178573925 1826.242957030499 L 6094.491480000001 1791.2935532605918 M 4451.867672107563 1882.0188291425234 L 6094.491480000001 1917.3698667394076 M 4433.698327742669 1936.3212754287824 L 6094.491480000001 2043.6800776516595 M 4415.937814850187 1989.4018532411396 L 6094.491480000001 2170.695462782895 M 4398.5086863913975 2041.4920273796408 L 6094.491480000001 2298.8978553207894 M 4381.338780890005 2092.80746576337 L 6094.49148 2428.7870573481077 M 4364.35996927244 2143.551784730027 L 6094.491480000001 2560.8888364351337 M 4347.507037642914 2193.919888069328 L 6094.491480000001 2695.7637854042646 M 4330.716665807246 2244.101019893451 L 6094.49148 2834.0173744632248 M 4313.926466836879 2294.2816350776466 L 6094.49148 2976.311596700755 M 4297.074056374824 2344.648180811563 L 6094.491480000001 3123.3787081828104 M 4280.0961220232375 2395.3898779065844 L 6094.491480000001 3276.0377025217717 M 4262.92746315683 2446.701590491079 L 5944.629730288327 3354.33252 M 4245.499969877647 2498.786877592877 L 5679.443677445399 3354.33252 M 4227.741506426929 2551.8613302694584 L 5449.960182770331 3354.33252 M 4209.574658904993 2606.1563142787095 L 5248.725971311688 3354.33252 M 4190.9152991351475 2661.9232622372574 L 5070.2047412328 3354.33252 M 4171.670905203044 2719.4386929992365 L 4910.19586048835 3354.33252 M 4151.73856351632 2779.0101828706024 L 4765.452319576059 3354.33252 M 4131.002555561309 2840.9835780330604 L 4633.422540905977 3354.33252 M 4109.331402538683 2905.751827197083 L 4512.071577650924 3354.33252 M 4086.57419927265 2973.7659383923587 L 4399.7545870947715 3354.33252 M 4062.5560100317916 3045.5487394088254 L 4295.125551813942 3354.33252 M 4015.6821690782535 3090.6138502382187 L 4197.070274855623 3354.33252 M 3939.0972844947632 3089.945504075688 L 4104.656409611654 3354.33252 M 3866.610603426754 3089.3129223934166 L 4017.0956475344005 3354.33252 M 3797.6531274069894 3088.711139617007 L 3933.7147152295443 3354.33252 M 3731.735020639482 3088.13588101423 L 3853.932841477192 3354.33252 M 3668.4303816125393 3087.583429798901 L 3777.2440331763455 3354.33252 M 3607.365147796879 3087.0505215767794 L 3703.2029629934354 3354.33252 M 3548.2073701758227 3086.534259472686 L 3631.413593296794 3354.33252 M 3490.6592932272183 3086.0320450135428 L 3561.5198872162123 3354.33252 M 3434.4508171047387 3085.5415210737015 L 3493.198118574628 3354.33252 M 3379.334019896458 3085.0605240714153 L 3426.150407936384 3354.33252 M 3325.078490819327 3084.587043242241 L 3360.099195449504 3354.33252 M 3271.4672780426604 3084.1191852762367 L 3294.7824215610426 3354.33252 M 3218.2932929728727 3083.6551429386254 L 3229.949230214123 3354.33252 M 3165.3560400000006 3083.193166530725 L 3165.3560400000006 3354.33252 M 3112.458559432602 3082.7315372113494 L 3100.7628497858786 3354.33252 M 3059.404483306434 3082.268541303235 L 3035.929658438957 3354.33252 M 3005.995109981733 3081.8024447634434 L 2970.612884550497 3354.33252 M 2952.026404473749 3081.3314670056366 L 2904.5616720636167 3354.33252 M 2897.28582737859 3080.8537532265373 L 2837.513961425372 3354.33252 M 2841.548885715419 3080.367344305582 L 2769.192192783789 3354.33252 M 2784.5752831866394 3079.8701432087496 L 2699.298486703208 3354.33252 M 2726.1045238636802 3079.3598766225127 L 2627.5091170065652 3354.33252 M 2665.8507899880387 3078.834050253081 L 2553.4680468236556 3354.33252 M 2603.49686824728 3078.289895821814 L 2476.7792385228086 3354.33252 M 2538.6868348730122 3077.724307229042 L 2396.9973647704555 3354.33252 M 2471.017121368529 3077.1337625858496 L 2313.6164324655992 3354.33252 M 2400.0254595153274 3076.5142277386108 L 2226.0556703883462 3354.33252 M 2325.1770314888417 3075.861035402878 L 2133.641805144378 3354.33252 M 2257.11811268712 3060.203892242429 L 2035.586528186059 3354.33252 M 2233.818215317723 2986.306058850053 L 1930.95749290523 3354.33252 M 2211.788283702223 2916.4360422419163 L 1818.6405023490763 3354.33252 M 2190.851795691292 2850.033985686707 L 1697.2895390940253 3354.33252 M 2170.8570894926547 2786.6188794323316 L 1565.2597604239418 3354.33252 M 2151.672561320695 2725.7733295963517 L 1420.5162195116507 3354.33252 M 2133.1828603564486 2667.1314901208993 L 1260.5073387671982 3354.33252 M 2115.2858368009274 2610.369383234435 L 1081.986108688312 3354.33252 M 2097.8900629426416 2555.1970372824103 L 880.7518972296682 3354.33252 M 2080.912792574696 2501.3520148251205 L 651.2684025546042 3354.33252 M 2064.278256582919 2448.5940069338744 L 386.0823497116715 3354.33252 M 2047.9162159432901 2396.7002438851728 L 236.22060000000045 3276.037702521772 M 2031.7607103154007 2345.4615262062093 L 236.22060000000002 3123.3787081828104 M 2015.748952668129 2294.678718875424 L 236.22060000000045 2976.3115967007557 M 1999.8203291329576 2244.159579262473 L 236.22060000000045 2834.0173744632248 M 1983.9154693719652 2193.7158087121948 L 236.22060000000002 2695.7637854042664 M 1967.9753567203659 2143.1602302772985 L 236.22060000000002 2560.888836435133 M 1951.9404495640872 2092.3040020840676 L 236.22060000000002 2428.787057348109 M 1935.7497860290896 2040.953777769657 L 236.22060000000045 2298.8978553207903 M 1919.340043142976 1988.9087225239443 L 236.22060000000002 2170.6954627828964 M 1902.6445191034197 1935.9572852573572 L 236.22060000000045 2043.6800776516595 M 1885.5920029358263 1881.8736136130026 L 236.22060000000002 1917.3698667394092 M 1868.1054892626323 1826.4134777356478 L 236.22060000000002 1791.2935532605918 M 1850.1006865433376 1769.3095390135577 L 236.22060000000045 1664.9833423483387 M 1831.4842540904183 1710.265758607333 L 236.22060000000002 1537.9679572171049 M 1812.1516851200133 1648.9506833444689 L 236.22060000000002 1409.765564679211 M 1791.984728151742 1584.9892674444175 L 236.22060000000002 1279.8763626518896 M 1770.8482044230993 1517.9527786466276 L 236.22060000000002 1147.774583564868 M 1748.5860304584166 1447.346183410934 L 236.22060000000002 1012.8996345957348 M 1725.0161862482928 1372.5921880215958 L 236.22060000000045 874.6460455367769 M 1788.5989596582303 1326.9768694138932 L 236.22060000000002 732.3518232992486 M 1848.8886669454803 1283.9726391403583 L 236.22060000000002 585.2847118171904 M 1906.1283167109987 1243.1439937537614 L 236.22060000000002 432.62571747822835 M 1960.7408308238007 1204.1892660166723 L 386.08234971166894 354.3309 M 2013.0924677595585 1166.8472062973349 L 651.2684025546016 354.3309 M 2063.503604608321 1130.8892918383058 L 880.7518972296704 354.3309 M 2112.257363828792 1096.1135733524236 L 1081.9861086883104 354.3309 M 2159.6066023369344 1062.3396897543641 L 1260.5073387671976 354.3309 M 2205.7796488916 1029.4047757232356 L 1420.5162195116466 354.3309 M 2250.985081759957 997.1600538269531 L 1565.2597604239418 354.3309000000002 M 2295.415770989596 965.4679511975653 L 1697.2895390940241 354.3309 M 2339.2523606690693 934.1996156589518 L 1818.640502349075 354.3309000000002 M 2382.6663311528396 903.2327314629932 L 1930.9574929052258 354.3309000000002 M 2425.8227558289377 872.449552906313 L 2035.5865281860592 354.3309000000002 M 2468.8828492102425 841.7350867944303 L 2133.6418051443784 354.3309 M 2512.0063913177246 810.9753631459987 L 2226.0556703883462 354.3309000000002 M 2555.3541064596934 780.0557384260584 L 2313.6164324655997 354.3309000000002 M 2599.0900720074783 748.8591773830411 L 2396.997364770455 354.3309000000002 M 2643.3842344130962 717.2644583908095 L 2476.779238522808 354.3309 M 2688.4151156474622 685.1442429650428 L 2553.4680468236543 354.3309 M 2734.372803964759 652.3629424717446 L 2627.5091170065657 354.3309000000002 M 2781.4623393552783 618.7743033071962 L 2699.2984867032055 354.3309000000002 M 2829.907627717917 584.2186149458543 L 2769.19219278379 354.3309000000002 M 2879.9560508866043 548.519421640454 L 2837.513961425372 354.3309 M 2931.8839854482612 511.4795858874146 L 2904.5616720636167 354.3309 M 2986.003506572928 472.87650663128477 L 2970.6128845504954 354.3309000000002 M 3042.6706408666605 432.4562325619761 L 3035.9296584389576 354.3309 M 3102.2956549786913 389.92612332260364 L 3100.762849785878 354.3309 M 1724.9487024223802 1372.3781566700861 L 3152.19831760732 354.3309 M 3204.07130732826 354.3309 L 4613.955245859944 1397.590134821302 L 4047.384863985389 3090.890515465284 L 2261.8806264201257 3075.308656044213 L 1724.94870242238 1372.3781566700864 "  fill="none" stroke="black" stroke-width="1"/>
      </g></svg>