<?xml version="1.0" standalone="no" ?>
    <!DOCTYPE svg PUBLIC "-//W3C//DTD SVG 1.1//EN" 
        "http://www.w3.org/Graphics/SVG/1.1/DTD/svg11.dtd">
        <svg version="1.1" id="spokesAndCircles" xmlns="http://www.w3.org/2000/svg" xmlns:xlink="http://www.w3.org/1999/xlink"
        x="0" y="0"
        viewBox="0 0 6330.712080000001 3862.20681"
        width="53.6cm"
        height="32.7cm" 
        xml:space="preserve">
          <g>
          <path d="M 3397.4494102465137 1004.5347322465136 L 3560.31699169068 354.3308999999998 M 3435.028179106503 1042.1135011065028 L 3643.6647501949924 354.3309 M 3470.683894749363 1077.7692167493633 L 3729.534263500435 354.3309 M 3504.7202952912407 1111.8056172912416 L 3818.4765963479995 354.3308999999998 M 3984.6538277087598 1591.7391497087592 L 6106.30251 712.9234909127211 M 4018.6902282506376 1625.775550250637 L 6106.30251 878.8159319542466 M 4054.3459438934974 1661.4312658934978 L 6106.30251 1038.9770466587797 M 4091.9247127534873 1699.010034753487 L 6106.30251 1194.4346636443497 M 4131.783674350267 1738.8689963502663 L 6106.30251 1346.1127803154518 M 4174.348230067812 1781.4335520678117 L 6106.30251 1494.8552060751335 M 4220.131743714153 1827.217065714153 L 6106.30251 1641.445459971402 M 4269.762092761496 1876.8474147614959 L 6106.30251 1786.623969588265 M 4324.018083 1931.103405 L 6106.30251 1931.1034049999998 M 4269.762092761495 1985.3593952385042 L 6106.30251 2075.582840411735 M 4220.131743714153 2034.9897442858473 L 6106.30251 2220.7613500285984 M 4174.348230067811 2080.7732579321887 L 6106.30251 2367.351603924867 M 4131.783674350267 2123.337813649734 L 6106.30251 2516.094029684548 M 4091.924712753487 2163.1967752465134 L 6106.30251 2667.772146355651 M 4054.3459438934974 2200.775544106503 L 6106.30251 2823.2297633412213 M 4018.6902282506376 2236.431259749363 L 6106.30251 2983.3908780457537 M 3984.6538277087593 2270.467660291241 L 6106.30251 3149.2833190872793 M 3504.720295291241 2750.4011927087595 L 3818.4765963479995 3507.8759100000007 M 3470.683894749364 2784.437593250637 L 3729.534263500435 3507.8759100000007 M 3435.028179106503 2820.0933088934976 L 3643.6647501949924 3507.8759100000007 M 3397.4494102465137 2857.672077753487 L 3560.31699169068 3507.8759100000007 M 3984.6538277087598 1440.0352092307403 L 5796.042034727917 354.3309 M 3984.6538277087598 1493.1796138098207 L 6106.30251 359.13476654982986 M 3984.6538277087598 1543.6044104480727 L 6106.30251 540.1393169080815 M 3984.6538277087598 2318.602399551928 L 6106.30251 3322.06749309192 M 3984.6538277087598 2369.0271961901794 L 6106.30251 3503.0720434501695 M 3984.6538277087598 2422.1716007692603 L 5796.04203472792 3507.8759100000007 M 3984.6538277087598 2478.540684841534 L 5525.1628573954995 3507.8759100000007 M 3984.6538277087598 2538.736056813672 L 5291.38765006996 3507.8759100000007 M 3984.6538277087598 2603.4837227454213 L 5086.658896392686 3507.8759100000007 M 3984.6538277087598 2673.6716354734845 L 4905.056409678862 3507.8759100000007 M 3984.6538277087598 2750.4011927087595 L 4742.128545000001 3507.8759100000007 M 3907.9242704734843 2750.4011927087595 L 4594.459336093981 3507.8759100000007 M 3837.736357745421 2750.4011927087595 L 4459.379792815279 3507.8759100000007 M 3772.9886918136717 2750.4011927087595 L 4334.770229679976 3507.8759100000007 M 3712.793319841534 2750.4011927087595 L 4218.921744699502 3507.8759100000007 M 3656.42423576926 2750.4011927087595 L 4110.437109160866 3507.8759100000007 M 3603.2798311901797 2750.4011927087595 L 4008.158502783526 3507.8759100000007 M 3552.8550345519275 2750.4011927087595 L 3911.1138944589197 3507.8759100000007 M 2825.9917847087595 2750.40119270876 L 2512.2354836520026 3507.8759100000007 M 2777.857045448073 2750.40119270876 L 2419.598185541081 3507.8759100000007 M 2727.432248809821 2750.40119270876 L 2322.553577216475 3507.8759100000007 M 2674.2878442307406 2750.40119270876 L 2220.2749708391348 3507.8759100000007 M 3357.5904486497343 2897.5310393502664 L 3478.995591788704 3507.8759100000007 M 2346.0582522912405 2270.467660291241 L 224.40956999999986 3149.283319087279 M 2312.0218517493627 2236.4312597493636 L 224.40956999999986 2983.3908780457537 M 2276.366136106503 2200.7755441065033 L 224.40956999999986 2823.2297633412213 M 2238.787367246513 2163.196775246514 L 224.40956999999986 2667.7721463556513 M 3315.0258929321894 2940.0955950678112 L 3399.24814665249 3507.8759100000007 M 3269.2423792858476 2985.879108714153 L 3320.6545767924417 3507.8759100000007 M 3219.6120302385043 3035.5094577614964 L 3242.8179059737618 3507.8759100000007 M 3165.3560400000006 3089.765448 L 3165.3560400000006 3507.8759100000007 M 3111.1000497614955 3035.509457761496 L 3087.894174026238 3507.8759100000007 M 3061.4697007141535 2985.879108714153 L 3010.0575032075594 3507.8759100000007 M 3015.6861870678117 2940.0955950678117 L 2931.4639333475116 3507.8759100000007 M 2973.121631350267 2897.5310393502673 L 2851.7164882112975 3507.8759100000007 M 2933.262669753487 2857.672077753487 L 2770.3950883093203 3507.8759100000007 M 2895.6839008934976 2820.0933088934976 L 2687.0473298050088 3507.8759100000007 M 2860.028185250637 2784.437593250637 L 2601.1778164995662 3507.8759100000007 M 2346.0582522912405 1591.739149708759 L 224.40956999999986 712.9234909127206 M 2617.918760158466 2750.40119270876 L 2111.790335300499 3507.8759100000007 M 2346.0582522912405 1543.604410448073 L 224.40956999999943 540.1393169080812 M 2346.0582522912405 1493.1796138098207 L 224.40956999999986 359.1347665498296 M 2346.0582522912405 1440.0352092307407 L 534.6700452720813 354.3308999999998 M 2557.723388186329 2750.40119270876 L 1995.9418503200245 3507.8759100000007 M 2492.975722254579 2750.40119270876 L 1871.3322871847229 3507.8759100000007 M 2422.787809526517 2750.40119270876 L 1736.2527439060223 3507.8759100000007 M 2346.0582522912414 2750.4011927087595 L 1588.5835350000004 3507.8759100000007 M 2346.0582522912414 2673.6716354734845 L 1425.655670321139 3507.8759100000007 M 2346.0582522912414 2603.4837227454204 L 1244.053183607313 3507.8759100000007 M 2346.0582522912414 2538.736056813672 L 1039.3244299300404 3507.8759100000007 M 2346.0582522912414 2478.540684841535 L 805.5492226045052 3507.8759100000007 M 2346.0582522912414 2422.1716007692603 L 534.6700452720834 3507.8759100000007 M 2346.0582522912414 2369.0271961901803 L 224.40956999999986 3503.0720434501723 M 2346.0582522912414 2318.602399551928 L 224.40956999999986 3322.067493091921 M 2825.9917847087595 1111.8056172912407 L 2512.235483652002 354.3309 M 2860.0281852506373 1077.7692167493626 L 2601.1778164995662 354.3309 M 2895.683900893497 1042.1135011065032 L 2687.0473298050065 354.3309 M 2933.262669753487 1004.5347322465134 L 2770.39508830932 354.3308999999998 M 2198.9284056497345 2123.3378136497345 L 224.40956999999986 2516.09402968455 M 2060.949987238505 1876.8474147614963 L 224.40956999999986 1786.6239695882664 M 2110.5803362858474 1827.2170657141535 L 224.40956999999986 1641.4454599714034 M 2156.3638499321896 1781.4335520678114 L 224.40956999999943 1494.8552060751326 M 2198.9284056497345 1738.8689963502666 L 224.40956999999986 1346.1127803154518 M 2238.787367246514 1699.010034753487 L 224.40956999999986 1194.4346636443504 M 2276.366136106503 1661.431265893498 L 224.40956999999943 1038.9770466587806 M 2312.0218517493627 1625.7755502506375 L 224.40956999999943 878.8159319542483 M 2156.3638499321883 2080.7732579321887 L 224.40956999999986 2367.351603924866 M 2110.5803362858474 2034.989744285848 L 224.40956999999986 2220.7613500285984 M 2060.949987238506 1985.3593952385058 L 224.40956999999986 2075.582840411738 M 2006.6939970000008 1931.103405 L 224.40956999999943 1931.1034050000012 M 3552.8550345519275 1111.8056172912409 L 3911.1138944589197 354.3309 M 3603.2798311901797 1111.8056172912409 L 4008.158502783526 354.3309 M 3656.4242357692606 1111.8056172912409 L 4110.437109160866 354.3308999999998 M 2346.0582522912405 1383.666125158467 L 805.5492226044989 354.3309 M 2422.787809526516 1111.8056172912413 L 1736.2527439060202 354.3309 M 2492.9757222545786 1111.805617291241 L 1871.3322871847206 354.3308999999998 M 2557.7233881863294 1111.805617291241 L 1995.9418503200245 354.3308999999998 M 2617.918760158467 1111.805617291241 L 2111.7903353004995 354.3308999999998 M 2674.2878442307397 1111.805617291241 L 2220.2749708391316 354.3308999999998 M 2727.4322488098205 1111.805617291241 L 2322.553577216474 354.3308999999998 M 2777.8570454480723 1111.805617291241 L 2419.5981855410787 354.3309 M 2346.0582522912414 1111.8056172912413 L 1588.5835349999993 354.3309 M 2346.0582522912405 1323.4707531863296 L 1039.3244299300388 354.3309 M 2346.0582522912405 1258.7230872545788 L 1244.053183607315 354.3309 M 2346.0582522912405 1188.5351745265161 L 1425.6556703211377 354.3308999999998 M 3357.5904486497343 964.6757706497343 L 3478.995591788704 354.3309 M 2973.121631350266 964.6757706497343 L 2851.7164882112957 354.3309 M 3165.3560400000006 772.4413620000006 L 3165.3560400000006 354.3308999999998 M 3219.6120302385043 826.6973522385048 L 3242.8179059737618 354.3308999999998 M 3269.242379285847 876.3277012858474 L 3320.6545767924413 354.3309 M 3315.025892932189 922.111214932189 L 3399.248146652489 354.3308999999998 M 3015.6861870678117 922.1112149321887 L 2931.4639333475116 354.3308999999998 M 3061.4697007141526 876.3277012858474 L 3010.0575032075594 354.3309 M 3111.1000497614946 826.6973522385052 L 3087.894174026237 354.3308999999998 M 3772.9886918136717 1111.8056172912402 L 4334.770229679976 354.3309 M 3837.7363577454225 1111.8056172912402 L 4459.379792815279 354.3309 M 3907.9242704734856 1111.80561729124 L 4594.45933609398 354.3309 M 3984.653827708758 1111.8056172912427 L 4742.128545000001 354.3308999999998 M 3984.653827708758 1188.5351745265175 L 4905.056409678862 354.3309 M 3984.653827708758 1258.7230872545802 L 5086.658896392684 354.3309 M 3984.653827708758 1323.4707531863298 L 5291.38765006996 354.3309 M 3984.653827708758 1383.6661251584676 L 5525.1628573954995 354.3309 M 3712.7933198415344 1111.8056172912402 L 4218.921744699502 354.3308999999998 "  fill="none" stroke="black" stroke-width="1"/>
      </g></svg>